<svg width="1455" height="178" viewBox="0 0 1455 178" fill="none" xmlns="http://www.w3.org/2000/svg">
<path d="M307.63 91.8469C205.221 91.8469 102.657 81.6857 0.751432 53.8315C0.207597 53.6802 -0.111325 53.12 0.0358785 52.5762C0.183082 52.0324 0.751448 51.7175 1.29119 51.8607C243.249 117.992 489.357 84.2168 727.36 51.554C965.568 18.8666 1211.88 -14.9411 1454.25 51.3046C1454.79 51.4558 1455.11 52.016 1454.96 52.5599C1454.82 53.1037 1454.27 53.4308 1453.71 53.2755C1211.75 -12.8598 965.646 20.9152 727.638 53.5821C589.59 72.5264 448.778 91.8469 307.63 91.8469Z" fill="#583DAD"/>
<path d="M307.63 113.355C205.221 113.355 102.657 103.194 0.751432 75.3395C0.207597 75.1882 -0.111325 74.628 0.0358785 74.0841C0.183082 73.5403 0.751448 73.2254 1.29119 73.3686C243.249 139.5 489.357 105.725 727.36 73.0619C965.568 40.3745 1211.88 6.56682 1454.25 72.8125C1454.79 72.9638 1455.11 73.524 1454.96 74.0678C1454.82 74.6116 1454.27 74.9387 1453.71 74.7834C1211.75 8.65218 965.642 42.4231 727.638 75.09C589.59 94.0302 448.778 113.355 307.63 113.355Z" fill="#583DAD"/>
<path d="M307.63 134.859C205.221 134.859 102.657 124.698 0.751432 96.8435C0.207597 96.6922 -0.111325 96.132 0.0358785 95.5882C0.183082 95.0443 0.751448 94.7335 1.29119 94.8726C243.249 161.004 489.353 127.233 727.36 94.5659C965.564 61.8745 1211.88 28.0749 1454.25 94.3124C1454.79 94.4637 1455.11 95.0239 1454.96 95.5677C1454.82 96.1115 1454.27 96.4305 1453.71 96.2833C1211.75 30.1521 965.646 63.9271 727.638 96.5899C589.594 115.534 448.778 134.859 307.63 134.859Z" fill="#583DAD"/>
<path d="M307.63 156.363C205.221 156.363 102.657 146.201 0.751432 118.347C0.207597 118.196 -0.111325 117.636 0.0358785 117.092C0.183082 116.548 0.751448 116.229 1.29119 116.376C243.249 182.508 489.361 148.733 727.36 116.07C965.568 83.3742 1211.88 49.5706 1454.25 115.816C1454.79 115.968 1455.11 116.528 1454.96 117.072C1454.82 117.615 1454.27 117.938 1453.71 117.787C1211.75 51.656 965.646 85.4269 727.638 118.094C589.594 137.042 448.778 156.363 307.63 156.363Z" fill="#583DAD"/>
<path d="M158.644 151.153C162.238 154.637 160.52 162.239 154.808 168.135C149.096 174.031 141.552 175.986 137.957 172.502C134.363 169.018 136.081 161.417 141.793 155.52C147.505 149.624 155.049 147.67 158.644 151.153Z" fill="#263238"/>
<path d="M142.684 177.478C139.969 177.478 137.524 176.624 135.684 174.845C130.724 170.032 132.376 160.55 139.446 153.251C142.619 149.976 146.434 147.637 150.192 146.664C154.456 145.564 158.366 146.341 160.913 148.81C165.877 153.619 164.221 163.105 157.151 170.404C152.694 175.004 147.305 177.478 142.684 177.478ZM153.904 152.691C153.279 152.691 152.58 152.785 151.831 152.981C149.259 153.648 146.45 155.402 144.136 157.794C139.519 162.562 138.264 168.258 140.227 170.163C142.19 172.064 147.845 170.633 152.465 165.87C157.086 161.102 158.341 155.406 156.374 153.504C155.822 152.965 154.964 152.691 153.904 152.691Z" fill="#263238"/>
<path d="M135.5 120.049L163.91 111.449L152.776 96.4838L124.366 105.083L158.644 151.154" fill="#263238"/>
<path d="M158.648 154.416C157.65 154.416 156.669 153.962 156.027 153.1L132.936 122.064C132.899 122.019 132.867 121.974 132.834 121.925L121.753 107.029C121.119 106.179 120.939 105.07 121.27 104.06C121.606 103.05 122.407 102.269 123.425 101.959L151.835 93.3595C153.152 92.967 154.575 93.4291 155.397 94.5372L166.531 109.503C167.165 110.353 167.345 111.462 167.014 112.471C166.683 113.481 165.877 114.262 164.859 114.573L140.893 121.827L161.265 149.211C162.34 150.659 162.042 152.699 160.594 153.774C160.005 154.208 159.322 154.416 158.648 154.416ZM129.755 106.857L136.751 116.258L158.521 109.671L151.525 100.27L129.755 106.857Z" fill="#263238"/>
<path d="M619.824 76.664C621.902 81.2192 617.526 87.6716 610.06 91.0736C602.589 94.4798 594.853 93.5475 592.776 88.9923C590.699 84.4372 595.07 77.9848 602.54 74.5827C610.011 71.1807 617.751 72.1089 619.824 76.664Z" fill="#263238"/>
<path d="M601.223 96.3893C600.467 96.3893 599.727 96.3443 599.007 96.2584C594.636 95.731 591.283 93.5761 589.807 90.3458C586.941 84.0569 591.937 75.8258 601.187 71.61C605.341 69.7168 609.749 68.944 613.597 69.3938C617.968 69.9213 621.321 72.0762 622.793 75.3065C625.659 81.5953 620.658 89.8265 611.409 94.0422C608.04 95.5837 604.499 96.3893 601.223 96.3893ZM611.389 75.7972C609.054 75.7972 606.4 76.4105 603.894 77.5554C597.85 80.3073 594.607 85.1528 595.744 87.643C596.251 88.7552 597.723 89.5321 599.784 89.7815C602.434 90.0963 605.672 89.4871 608.706 88.105C614.75 85.3531 617.992 80.5077 616.86 78.0134C616.353 76.9053 614.881 76.1243 612.82 75.8748C612.358 75.8258 611.879 75.7972 611.389 75.7972Z" fill="#263238"/>
<path d="M609.626 39.258L639.214 41.6173L634.307 23.6217L604.72 21.2623L619.824 76.664" fill="#263238"/>
<path d="M619.824 79.927C618.389 79.927 617.077 78.9742 616.676 77.5226L606.498 40.1943C606.482 40.1411 606.47 40.092 606.457 40.0348L601.571 22.1169C601.293 21.0905 601.53 19.9947 602.209 19.1769C602.888 18.3591 603.898 17.9379 604.981 18.0074L634.569 20.3668C635.943 20.4772 637.096 21.434 637.46 22.7588L642.367 40.7545C642.645 41.7808 642.408 42.8766 641.729 43.6944C641.054 44.5122 640.04 44.9498 638.957 44.8639L613.998 42.8766L622.977 75.8012C623.451 77.539 622.425 79.3341 620.687 79.8084C620.397 79.8902 620.106 79.927 619.824 79.927ZM612.174 36.1871L634.847 37.9944L631.764 26.6924L609.091 24.8851L612.174 36.1871Z" fill="#263238"/>
<path d="M958.381 157.188C960.716 159.449 959.6 164.389 955.891 168.216C952.182 172.043 947.28 173.315 944.945 171.054C942.61 168.793 943.726 163.853 947.435 160.026C951.148 156.194 956.046 154.927 958.381 157.188Z" fill="#263238"/>
<path d="M948.044 174.288C946.237 174.288 944.638 173.704 943.473 172.575C941.817 170.972 941.228 168.449 941.858 165.66C942.414 163.203 943.853 160.676 945.914 158.55C950.506 153.815 956.631 152.543 959.853 155.663C961.51 157.27 962.094 159.789 961.469 162.577C960.912 165.035 959.473 167.562 957.408 169.688C955.347 171.814 952.87 173.335 950.428 173.965C949.611 174.182 948.809 174.288 948.044 174.288ZM955.302 158.178C953.593 158.178 951.107 159.286 948.96 161.498C947.456 163.052 946.376 164.908 945.996 166.593C945.697 167.909 945.857 168.981 946.425 169.533C946.998 170.085 948.073 170.212 949.377 169.868C951.05 169.435 952.869 168.298 954.374 166.744C955.879 165.19 956.962 163.334 957.343 161.649C957.641 160.333 957.486 159.261 956.918 158.709C956.545 158.353 955.985 158.178 955.302 158.178Z" fill="#263238"/>
<path d="M943.35 136.985L971.622 127.833L964.392 118.114L936.121 127.265L958.381 157.188" fill="#263238"/>
<path d="M958.385 159.306C957.739 159.306 957.102 159.012 956.684 158.456L941.69 138.305C941.666 138.273 941.637 138.236 941.612 138.203L934.42 128.537C934.011 127.989 933.892 127.277 934.101 126.627C934.309 125.977 934.816 125.466 935.467 125.253L963.738 116.102C964.601 115.824 965.549 116.127 966.089 116.854L973.323 126.574C973.731 127.122 973.85 127.833 973.641 128.484C973.433 129.134 972.926 129.645 972.276 129.853L946.814 138.093L960.082 155.921C960.782 156.861 960.589 158.19 959.649 158.885C959.269 159.171 958.823 159.306 958.385 159.306ZM939.584 128.373L944.143 134.503L968.158 126.729L963.599 120.6L939.584 128.373Z" fill="#263238"/>
<path d="M986.652 148.037C988.987 150.299 987.871 155.238 984.162 159.065C980.454 162.893 975.551 164.164 973.216 161.903C970.881 159.642 971.997 154.702 975.706 150.875C979.419 147.048 984.318 145.776 986.652 148.037Z" fill="#263238"/>
<path d="M976.287 165.137C974.525 165.137 972.934 164.581 971.744 163.428C968.518 160.304 969.593 154.142 974.189 149.403C978.777 144.664 984.911 143.396 988.129 146.52C989.785 148.123 990.369 150.646 989.74 153.435C989.184 155.892 987.744 158.415 985.683 160.546C982.793 163.526 979.288 165.137 976.287 165.137ZM983.574 149.031C981.86 149.031 979.378 150.139 977.232 152.351C974.23 155.447 973.417 159.147 974.692 160.382C975.968 161.621 979.644 160.685 982.641 157.593C984.146 156.039 985.226 154.183 985.606 152.498C985.904 151.182 985.749 150.115 985.181 149.558C984.817 149.207 984.256 149.031 983.574 149.031Z" fill="#263238"/>
<path d="M986.657 150.155C986.011 150.155 985.373 149.861 984.956 149.301L969.924 129.097C969.225 128.157 969.417 126.828 970.358 126.133C971.298 125.429 972.623 125.625 973.322 126.566L988.354 146.77C989.053 147.71 988.861 149.039 987.92 149.734C987.54 150.02 987.094 150.155 986.657 150.155Z" fill="#263238"/>
<path d="M379.154 118.597C381.579 122.195 378.762 128.337 372.862 132.316C366.961 136.294 360.21 136.601 357.785 133.003C355.361 129.404 358.178 123.263 364.078 119.284C369.979 115.305 376.73 114.999 379.154 118.597Z" fill="#263238"/>
<path d="M363.514 138.33C360.071 138.33 357.123 137.079 355.438 134.585C353.721 132.033 353.643 128.578 355.238 125.106C356.641 122.052 359.221 119.153 362.496 116.941C369.803 112.022 378.149 112.046 381.497 117.014C383.219 119.566 383.292 123.021 381.698 126.493C380.295 129.547 377.715 132.45 374.44 134.658C370.809 137.108 366.92 138.33 363.514 138.33ZM373.475 118.908C371.299 118.908 368.433 119.762 365.661 121.631C363.269 123.246 361.343 125.372 360.382 127.466C359.63 129.101 359.54 130.541 360.132 131.42C361.457 133.387 366.507 133.186 371.283 129.964C373.675 128.353 375.601 126.223 376.562 124.129C377.314 122.494 377.404 121.054 376.811 120.175C376.255 119.353 375.045 118.908 373.475 118.908Z" fill="#263238"/>
<path d="M365.088 88.0681L404.535 83.9096L397.767 69.2219L358.321 73.3804L379.154 118.596" fill="#263238"/>
<path d="M379.159 121.426C378.087 121.426 377.065 120.817 376.587 119.782L362.557 89.3276C362.533 89.2786 362.508 89.2295 362.488 89.1804L355.753 74.5664C355.373 73.7364 355.414 72.7754 355.864 71.9863C356.313 71.193 357.119 70.6655 358.027 70.5715L397.469 66.4089C398.667 66.2944 399.828 66.9364 400.335 68.0363L407.103 82.7239C407.483 83.554 407.442 84.5149 406.992 85.3041C406.543 86.0974 405.737 86.6248 404.829 86.7189L369.308 90.4685L381.722 117.411C382.377 118.83 381.755 120.51 380.336 121.165C379.956 121.34 379.551 121.426 379.159 121.426ZM362.541 75.7808L366.81 85.0424L400.315 81.5054L396.046 72.2439L362.541 75.7808Z" fill="#263238"/>
<path d="M418.601 114.438C421.026 118.037 418.208 124.178 412.308 128.157C406.407 132.135 399.657 132.442 397.232 128.844C394.807 125.245 397.624 119.104 403.525 115.125C409.425 111.147 416.176 110.84 418.601 114.438Z" fill="#263238"/>
<path d="M402.952 134.18C399.428 134.18 396.512 132.826 394.889 130.422C393.171 127.871 393.098 124.415 394.688 120.948C396.091 117.889 398.667 114.99 401.946 112.778C409.253 107.855 417.599 107.884 420.948 112.856C424.297 117.824 421.197 125.573 413.89 130.5C410.611 132.712 406.955 134.012 403.598 134.164C403.382 134.176 403.165 134.18 402.952 134.18ZM412.921 114.749C410.746 114.749 407.879 115.6 405.107 117.468C402.715 119.083 400.789 121.21 399.828 123.303C399.08 124.939 398.986 126.378 399.579 127.257C400.172 128.132 401.525 128.598 403.341 128.513C405.643 128.406 408.337 127.421 410.73 125.806C415.501 122.588 417.583 117.983 416.258 116.012C415.698 115.195 414.487 114.749 412.921 114.749Z" fill="#263238"/>
<path d="M418.601 117.268C417.529 117.268 416.507 116.658 416.029 115.624L401.963 85.0956C401.308 83.6767 401.93 81.9961 403.349 81.3419C404.772 80.6918 406.452 81.3133 407.103 82.7281L421.169 113.256C421.823 114.675 421.201 116.356 419.783 117.01C419.402 117.182 418.997 117.268 418.601 117.268Z" fill="#263238"/>
<path d="M681.813 141.626C680.664 144.913 675.365 146.05 669.976 144.169C664.582 142.288 661.143 138.097 662.292 134.809C663.441 131.522 668.741 130.381 674.134 132.266C679.519 134.147 682.962 138.338 681.813 141.626Z" fill="#263238"/>
<path d="M675.091 147.35C673.198 147.35 671.186 146.999 669.223 146.316C666.23 145.269 663.638 143.543 661.924 141.458C659.982 139.091 659.332 136.396 660.146 134.061C661.732 129.522 668.205 127.793 674.878 130.123C677.871 131.17 680.464 132.896 682.177 134.981C684.119 137.349 684.77 140.043 683.956 142.378C683.142 144.713 680.959 146.414 677.961 147.06C677.049 147.252 676.089 147.35 675.091 147.35ZM669.002 133.628C666.618 133.628 664.84 134.4 664.435 135.558C664.157 136.359 664.521 137.459 665.437 138.575C666.61 140.006 668.536 141.262 670.724 142.026C672.911 142.791 675.205 143.004 677.009 142.619C678.419 142.317 679.392 141.683 679.671 140.877C679.949 140.076 679.585 138.976 678.669 137.86C677.495 136.429 675.569 135.173 673.382 134.409C671.828 133.865 670.319 133.628 669.002 133.628Z" fill="#263238"/>
<path d="M694.681 117.922L708.416 133.341L714.607 121.941L700.872 106.521L681.813 141.625" fill="#263238"/>
<path d="M681.809 143.895C681.445 143.895 681.073 143.809 680.73 143.621C679.626 143.024 679.217 141.646 679.818 140.542L692.661 116.891C692.678 116.855 692.698 116.822 692.719 116.785L698.881 105.438C699.232 104.788 699.882 104.35 700.614 104.265C701.367 104.183 702.078 104.457 702.573 105.009L716.304 120.428C716.942 121.144 717.06 122.178 716.602 123.021L710.412 134.425C710.06 135.075 709.41 135.513 708.678 135.599C707.921 135.676 707.214 135.406 706.719 134.854L695.135 121.847L683.804 142.713C683.396 143.466 682.615 143.895 681.809 143.895ZM697.437 117.607L707.962 129.424L711.851 122.26L701.326 110.443L697.437 117.607Z" fill="#263238"/>
<path d="M1087.51 75.5766C1088.34 78.9582 1084.53 82.806 1078.98 84.1758C1073.44 85.5456 1068.27 83.9141 1067.43 80.5366C1066.59 77.155 1070.41 73.3072 1075.95 71.9374C1081.5 70.5635 1086.67 72.195 1087.51 75.5766Z" fill="#263238"/>
<path d="M1075.1 86.9316C1073.56 86.9316 1072.09 86.723 1070.76 86.3019C1067.83 85.3818 1065.82 83.4764 1065.23 81.0802C1064.63 78.6841 1065.53 76.0589 1067.69 73.8836C1069.59 71.9659 1072.33 70.4938 1075.41 69.7292C1082.26 68.0323 1088.55 70.3589 1089.71 75.0285C1090.86 79.6941 1086.39 84.6826 1079.52 86.3796C1078.04 86.7476 1076.54 86.9316 1075.1 86.9316ZM1079.83 73.7201C1078.8 73.7201 1077.67 73.8509 1076.5 74.1412C1074.25 74.6973 1072.22 75.7686 1070.91 77.0812C1069.9 78.1035 1069.43 79.1666 1069.63 79.9926C1069.84 80.8185 1070.75 81.5382 1072.12 81.9716C1073.89 82.5318 1076.19 82.5318 1078.44 81.9716C1082.92 80.8635 1085.76 77.9685 1085.31 76.1203C1084.96 74.7546 1082.77 73.7201 1079.83 73.7201Z" fill="#263238"/>
<path d="M1085.33 48.6913L1105.26 54.0969L1104.21 41.1634L1084.28 35.7578L1087.51 75.5764" fill="#263238"/>
<path d="M1087.5 77.8418C1086.33 77.8418 1085.34 76.9422 1085.24 75.7564L1083.07 48.9408C1083.07 48.8958 1083.06 48.8468 1083.06 48.7977L1082.02 35.9337C1081.96 35.1977 1082.26 34.4781 1082.83 34.0037C1083.4 33.5294 1084.17 33.3658 1084.88 33.558L1104.81 38.9678C1105.73 39.2172 1106.4 40.0227 1106.47 40.9755L1107.52 53.9089C1107.58 54.6449 1107.28 55.3646 1106.71 55.8389C1106.14 56.3133 1105.38 56.4809 1104.66 56.2846L1087.85 51.7213L1089.77 75.3843C1089.87 76.6355 1088.94 77.7273 1087.69 77.8295C1087.63 77.8418 1087.56 77.8418 1087.5 77.8418ZM1087.46 46.9168L1102.74 51.063L1102.08 42.9382L1086.81 38.792L1087.46 46.9168Z" fill="#263238"/>
<path d="M1308.95 96.1116C1309.05 98.3687 1306.13 100.34 1302.43 100.507C1298.72 100.675 1295.64 98.9779 1295.53 96.7208C1295.43 94.4637 1298.35 92.4928 1302.06 92.3251C1305.76 92.1575 1308.85 93.8544 1308.95 96.1116Z" fill="#263238"/>
<path d="M1301.92 101.991C1300.07 101.991 1298.31 101.578 1296.92 100.814C1295.18 99.857 1294.13 98.389 1294.06 96.7861C1293.92 93.6662 1297.4 91.0615 1301.99 90.853C1304.02 90.7589 1306.03 91.1719 1307.57 92.0184C1309.31 92.9752 1310.35 94.4431 1310.43 96.046C1310.56 99.1659 1307.08 101.771 1302.49 101.979C1302.3 101.987 1302.12 101.991 1301.92 101.991ZM1302.55 93.7889C1302.41 93.7889 1302.26 93.7889 1302.12 93.7971C1299.13 93.932 1296.95 95.4163 1297.01 96.6512C1297.03 97.2032 1297.52 97.7756 1298.34 98.2254C1299.39 98.802 1300.85 99.1046 1302.36 99.0269C1305.36 98.8919 1307.53 97.4076 1307.48 96.1728C1307.45 95.6208 1306.97 95.0483 1306.14 94.5985C1305.19 94.0792 1303.9 93.7889 1302.55 93.7889Z" fill="#263238"/>
<path d="M1310.98 78.7126L1329.66 87.5693L1330.63 79.1992L1311.96 70.3424L1308.95 96.1112" fill="#263238"/>
<path d="M1308.95 97.5877C1308.9 97.5877 1308.84 97.5837 1308.78 97.5755C1307.97 97.4814 1307.4 96.7495 1307.49 95.9399L1310.49 70.1711C1310.55 69.7008 1310.83 69.2838 1311.24 69.0548C1311.66 68.8258 1312.16 68.8095 1312.59 69.0139L1331.26 77.8707C1331.84 78.1405 1332.17 78.7457 1332.1 79.3754L1331.12 87.7456C1331.07 88.2158 1330.78 88.6328 1330.37 88.8618C1329.95 89.0908 1329.45 89.1113 1329.03 88.9027L1312.21 80.9251L1310.42 96.2834C1310.33 97.0316 1309.69 97.5877 1308.95 97.5877ZM1312.57 77.8379L1328.43 85.3617L1329.05 80.0828L1313.19 72.559L1312.57 77.8379Z" fill="#263238"/>
<path d="M1327.63 104.968C1327.73 107.226 1324.81 109.196 1321.11 109.364C1317.4 109.532 1314.31 107.839 1314.21 105.578C1314.11 103.321 1317.03 101.35 1320.73 101.182C1324.44 101.014 1327.53 102.711 1327.63 104.968Z" fill="#263238"/>
<path d="M1320.6 110.853C1318.75 110.853 1316.99 110.44 1315.6 109.675C1313.85 108.718 1312.81 107.246 1312.74 105.643C1312.67 104.04 1313.57 102.486 1315.22 101.374C1316.68 100.393 1318.61 99.8041 1320.67 99.71C1325.23 99.5219 1328.96 101.779 1329.1 104.903C1329.24 108.019 1325.76 110.628 1321.18 110.84C1320.98 110.848 1320.79 110.853 1320.6 110.853ZM1321.24 102.646C1321.09 102.646 1320.95 102.646 1320.8 102.654C1319.29 102.724 1317.86 103.145 1316.87 103.815C1316.09 104.339 1315.66 104.956 1315.68 105.508C1315.71 106.06 1316.19 106.637 1317.02 107.087C1318.07 107.663 1319.52 107.97 1321.04 107.888C1324.03 107.753 1326.21 106.269 1326.16 105.03C1326.1 103.86 1324.02 102.646 1321.24 102.646Z" fill="#263238"/>
<path d="M1327.63 106.445C1327.57 106.445 1327.52 106.44 1327.46 106.432C1326.65 106.338 1326.07 105.606 1326.17 104.797L1328.2 87.398C1328.29 86.5884 1329.01 85.9873 1329.83 86.1059C1330.64 86.1999 1331.22 86.9319 1331.12 87.7415L1329.1 105.14C1329.01 105.888 1328.37 106.445 1327.63 106.445Z" fill="#263238"/>
<path d="M881.887 36.2949C881.973 39.3126 878.027 41.8723 873.079 42.0113C868.131 42.1503 864.051 39.8155 863.965 36.7978C863.879 33.7802 867.825 31.2205 872.772 31.0815C877.724 30.9424 881.805 33.2772 881.887 36.2949Z" fill="#263238"/>
<path d="M872.654 43.9825C866.758 43.9825 862.117 40.9116 862.002 36.8513C861.888 32.6805 866.594 29.2826 872.723 29.1149C878.755 28.935 883.739 32.0672 883.858 36.2379C883.972 40.4046 879.266 43.8067 873.14 43.9784C872.973 43.9784 872.813 43.9825 872.654 43.9825ZM873.194 33.0444C873.071 33.0444 872.948 33.0444 872.83 33.0485C868.827 33.1589 865.887 35.093 865.932 36.7409C865.981 38.3928 869.101 40.1634 873.022 40.0407C877.025 39.9303 879.965 38.0003 879.92 36.3483C879.875 34.7495 877.017 33.0444 873.194 33.0444Z" fill="#263238"/>
<path d="M884.998 13.1186L909.72 25.3692L911.217 14.2227L886.495 1.97205L881.887 36.295" fill="#263238"/>
<path d="M881.891 38.2618C881.805 38.2618 881.715 38.2537 881.629 38.2455C880.55 38.0983 879.797 37.1087 879.94 36.0333L883.04 12.9428C883.044 12.8856 883.056 12.8283 883.064 12.7711L884.549 1.7063C884.63 1.0766 885.015 0.528675 885.575 0.230179C886.139 -0.0683166 886.81 -0.0764967 887.374 0.205643L912.096 12.4562C912.853 12.8324 913.286 13.6461 913.172 14.4803L911.675 25.631C911.589 26.2607 911.209 26.8086 910.649 27.1071C910.088 27.4097 909.422 27.4138 908.849 27.1316L886.589 16.0995L883.845 36.5526C883.706 37.5463 882.86 38.2618 881.891 38.2618ZM887.137 11.9819L908.138 22.3884L909.083 15.3553L888.081 4.94887L887.137 11.9819Z" fill="#263238"/>
<path d="M897.796 54.2689C902.744 54.1298 906.687 51.5704 906.602 48.5523C906.517 45.5342 902.437 43.2002 897.489 43.3393C892.541 43.4784 888.598 46.0379 888.683 49.056C888.768 52.0741 892.848 54.408 897.796 54.2689Z" fill="#263238"/>
<path d="M897.384 56.2327C891.484 56.2327 886.838 53.1619 886.724 49.1015C886.609 44.9307 891.316 41.5328 897.445 41.3652C903.513 41.2016 908.461 44.3215 908.58 48.4882C908.694 52.6548 903.988 56.0528 897.862 56.2245C897.703 56.2327 897.543 56.2327 897.384 56.2327ZM897.92 45.2988C897.797 45.2988 897.674 45.2987 897.556 45.3028C893.553 45.4132 890.613 47.3432 890.662 48.9952C890.711 50.6471 893.786 52.4545 897.756 52.295C901.759 52.1805 904.695 50.2505 904.65 48.5986C904.597 46.9998 901.739 45.2988 897.92 45.2988Z" fill="#263238"/>
<path d="M906.613 50.5123C906.527 50.5123 906.437 50.5041 906.347 50.496C905.272 50.3488 904.515 49.3593 904.658 48.2839L907.766 25.1116C907.913 24.0362 908.886 23.2674 909.978 23.4228C911.054 23.57 911.81 24.5595 911.667 25.6349L908.559 48.8072C908.428 49.7968 907.586 50.5123 906.613 50.5123Z" fill="#263238"/>
</svg>
